ply
format ascii 1.0
element vertex 21
property double x
property double y
property double z
end_header
361.866800000000012 729.519999999999982 96.177099999999996
361.026900000000012 737.428199999999947 102.460800000000006
359.935900000000004 744.490199999999959 107.338700000000003
358.960300000000018 751.029300000000035 111.150899999999993
357.104499999999973 761.396499999999946 115.968199999999996
354.899600000000021 772.544899999999984 119.398099999999999
353.267999999999972 782.476099999999974 121.864400000000003
351.115299999999991 795.449700000000007 122.253200000000007
348.859100000000012 808.101599999999962 120.222800000000007
347.252000000000010 820.702599999999961 115.147099999999995
346.021700000000010 832.347200000000043 107.146000000000001
346.851200000000006 838.535600000000045 100.014200000000002
346.416899999999998 842.899400000000014 91.574600000000004
347.614500000000021 845.543900000000008 82.117300000000000
345.093099999999993 841.900399999999991 65.757499999999993
343.904200000000003 837.108899999999949 59.245899999999999
339.343000000000018 831.755899999999997 50.838700000000003
333.441199999999981 827.132299999999987 46.218000000000004
329.639700000000005 825.505899999999997 46.592300000000002
325.085599999999999 824.202099999999973 48.287199999999999
320.226900000000001 823.007799999999975 49.996200000000002
